<?xml version="1.0" encoding="UTF-8" standalone="no"?>
<!DOCTYPE svg PUBLIC "-//W3C//DTD SVG 1.1//EN" "http://www.w3.org/Graphics/SVG/1.1/DTD/svg11.dtd">
<svg width="100%" height="100%" viewBox="0 0 855 262" version="1.1" xmlns="http://www.w3.org/2000/svg" xmlns:xlink="http://www.w3.org/1999/xlink" xml:space="preserve" xmlns:serif="http://www.serif.com/" style="fill-rule:evenodd;clip-rule:evenodd;stroke-linejoin:round;stroke-miterlimit:2;">
    <g transform="matrix(1,0,0,1,-112.733,-395.424)">
        <g>
            <g transform="matrix(0.965926,0.258819,-0.258819,0.965926,178.782,29.1476)">
                <path d="M117,611.843L97,617.202L97,353.206L117,347.847L117,611.843Z"/>
            </g>
            <g transform="matrix(0,1,-0.175807,0,259.744,443.424)">
                <path d="M117,611.843L97,617.202L97,353.206L117,347.847L117,611.843Z"/>
            </g>
            <g transform="matrix(1.26506,0,0,0.902778,-19.0927,91.6047)">
                <path d="M152.192,619L135.825,619L149.592,547L165.959,547L152.192,619Z"/>
            </g>
            <g transform="matrix(1.26506,0,0,1.18056,9.90726,-170.34)">
                <path d="M148.331,619L131.963,619L149.967,547L166.334,547L148.331,619Z"/>
            </g>
        </g>
        <g transform="matrix(1.2474,0,0,4.5,-28.2211,-2287.45)">
            <path d="M556.535,652.86L583.465,625L600.064,625L573.133,652.86L556.535,652.86Z"/>
        </g>
        <g transform="matrix(1.2474,0,0,4.5,-29.87,-2281.29)">
            <path d="M556.535,652.86L583.465,625L600.064,625L573.133,652.86L556.535,652.86Z"/>
        </g>
        <g transform="matrix(1.2474,0,0,4.5,-29.8643,-2281.31)">
            <path d="M556.535,652.86L583.465,625L600.064,625L573.133,652.86L556.535,652.86Z"/>
        </g>
        <g>
            <g transform="matrix(1.2474,0,0,4.5,-29.8643,-2281.31)">
                <path d="M556.535,652.86L583.465,625L600.064,625L573.133,652.86L556.535,652.86Z"/>
            </g>
            <g transform="matrix(0,1,-0.175807,0,744.67,533.424)">
                <path d="M117,611.843L97,617.202L97,353.206L117,347.847L117,611.843Z"/>
            </g>
            <g transform="matrix(0.965926,0.258819,-0.258819,0.965926,691.782,30.1476)">
                <path d="M97,616.166L97,485.722L117,480.363L117,610.807L97,616.166Z"/>
            </g>
        </g>
        <g>
            <g transform="matrix(0.965926,0.258819,-0.258819,0.965926,619.05,29.1476)">
                <path d="M117,611.843L97,617.202L97,353.206L117,347.847L117,611.843Z"/>
            </g>
            <g transform="matrix(0.965926,0.258819,-0.258819,0.965926,655.05,29.1476)">
                <path d="M117,482.05L117,611.843L97,617.202L97,487.409L117,482.05Z"/>
            </g>
            <g transform="matrix(0,1,-0.175807,0,694.982,428.054)">
                <path d="M117,611.843L97,617.202L97,353.206L117,347.847L117,611.843Z"/>
            </g>
        </g>
        <g>
            <g transform="matrix(0,1,-0.175807,0,309.081,533.424)">
                <path d="M117,611.843L97,617.202L97,353.206L117,347.847L117,611.843Z"/>
            </g>
            <g transform="matrix(0,1,-0.175807,0,352.081,378.424)">
                <path d="M117,611.843L97,617.202L97,353.206L117,347.847L117,611.843Z"/>
            </g>
            <g transform="matrix(0,1,-0.175807,0,332.758,438.424)">
                <path d="M117,611.843L97,617.202L97,353.206L117,347.847L117,611.843Z"/>
            </g>
            <g transform="matrix(0.965926,0.258819,-0.258819,0.965926,258.782,29.1476)">
                <path d="M117,611.843L97,617.202L97,436.028L117,430.669L117,611.843Z"/>
            </g>
        </g>
        <g>
            <g transform="matrix(1,0,0,1,108.245,38.4242)">
                <path d="M769.983,496.63L739.07,612L718.365,612L749.278,496.63L769.983,496.63Z"/>
            </g>
            <g transform="matrix(0,1,-0.175807,0,970.982,438.054)">
                <path d="M117,611.843L97,617.202L97,353.206L117,347.847L117,611.843Z"/>
            </g>
            <g transform="matrix(0,1,-0.175807,0,947.305,533.424)">
                <path d="M117,611.843L97,617.202L97,353.206L117,347.847L117,611.843Z"/>
            </g>
            <g transform="matrix(0.965926,0.258819,-0.258819,0.965926,930.782,36.1476)">
                <path d="M97,609.955L97,473.298L117,467.939L117,604.596L97,609.955Z"/>
            </g>
            <g transform="matrix(0.965926,0.258819,-0.258819,0.965926,933.782,36.1476)">
                <path d="M117,604.596L97,609.955L97,589.249L117,583.89L117,604.596Z"/>
            </g>
        </g>
        <g>
            <g transform="matrix(0,1,-0.175807,0,541.081,427.424)">
                <path d="M117,611.843L97,617.202L97,353.206L117,347.847L117,611.843Z"/>
            </g>
            <g transform="matrix(0,1,-0.175807,0,510.081,533.424)">
                <path d="M117,611.843L97,617.202L97,353.206L117,347.847L117,611.843Z"/>
            </g>
            <g transform="matrix(0.965926,0.258819,-0.258819,0.965926,458.782,29.1476)">
                <path d="M117,611.843L97,617.202L97,486.757L117,481.398L117,611.843Z"/>
            </g>
            <g transform="matrix(1,0,0,1,35.2446,38.4242)">
                <path d="M397.489,612L431.25,486L451.956,486L418.194,612L397.489,612Z"/>
            </g>
        </g>
        <g transform="matrix(0,1,-0.175807,0,510.081,533.424)">
            <path d="M117,611.843L97,617.202L97,353.206L117,347.847L117,611.843Z"/>
        </g>
        <g transform="matrix(1,0,0,1,35.2446,38.4242)">
            <path d="M222.944,517L244.38,437L265.086,437L243.65,517L222.944,517ZM225.429,585L218.194,612L197.489,612L204.723,585L225.429,585Z"/>
        </g>
        <g>
            <g transform="matrix(0.965926,0.258819,-0.258819,0.965926,338.782,29.1476)">
                <path d="M117,611.843L97,617.202L97,436.028L117,430.669L117,611.843Z"/>
            </g>
            <g transform="matrix(0.965926,0.258819,-0.258819,0.965926,378.782,29.1476)">
                <path d="M117,611.843L97,617.202L97,486.757L117,481.398L117,611.843Z"/>
            </g>
            <g transform="matrix(0.965926,0.258819,-0.258819,0.965926,418.782,29.1476)">
                <path d="M117,611.843L97,617.202L97,486.757L117,481.398L117,611.843Z"/>
            </g>
        </g>
        <g>
            <g transform="matrix(0.965926,0.258819,-0.258819,0.965926,771.893,29.7773)">
                <path d="M117,611.843L97,617.202L97,436.028L117,430.669L117,611.843Z"/>
            </g>
            <g transform="matrix(0.965926,0.258819,-0.258819,0.965926,811.893,29.7773)">
                <path d="M117,611.843L97,617.202L97,486.757L117,481.398L117,611.843Z"/>
            </g>
            <g transform="matrix(0.965926,0.258819,-0.258819,0.965926,851.893,29.7773)">
                <path d="M117,611.843L97,617.202L97,486.757L117,481.398L117,611.843Z"/>
            </g>
        </g>
        <g>
            <g transform="matrix(0.965926,0.258819,-0.258819,0.965926,538.782,30.1476)">
                <path d="M117,346.812L117,480.363L97,485.722L97,352.171L117,346.812Z"/>
            </g>
            <g>
                <g transform="matrix(0.965926,0.258819,-0.258819,0.965926,535.088,43.8492)">
                    <path d="M117,346.812L117,480.363L97,485.722L97,352.171L117,346.812Z"/>
                </g>
                <g transform="matrix(0.965926,0.258819,-0.258819,0.965926,578.782,30.1476)">
                    <path d="M97,616.166L97,486.374L117,481.015L117,610.807L97,616.166Z"/>
                </g>
            </g>
        </g>
        <g>
            <g transform="matrix(0.965926,0.258819,-0.258819,0.965926,971.782,30.1476)">
                <path d="M117,474.151L97,479.51L97,459.456L117,454.097L117,474.151Z"/>
            </g>
            <g transform="matrix(0.965926,0.258819,-0.258819,0.965926,970.782,36.1476)">
                <path d="M117,604.596L97,609.955L97,480.162L117,474.803L117,604.596Z"/>
            </g>
        </g>
    </g>
</svg>
